<?xml version="1.0" standalone="no"?>
<!DOCTYPE svg PUBLIC "-//W3C//DTD SVG 20010904//EN"
 "http://www.w3.org/TR/2001/REC-SVG-20010904/DTD/svg10.dtd">
<svg version="1.0" xmlns="http://www.w3.org/2000/svg"
 width="200.000000pt" height="200.000000pt" viewBox="0 0 200.000000 200.000000"
 preserveAspectRatio="xMidYMid meet">
<metadata>
Created by potrace 1.11, written by Peter Selinger 2001-2013
</metadata>
<g transform="translate(0.000000,200.000000) scale(0.100000,-0.100000)"
fill="#000000" stroke="none">
<path d="M0 1000 l0 -1000 1000 0 1000 0 0 1000 0 1000 -1000 0 -1000 0 0
-1000z m1034 429 c26 -20 34 -57 20 -94 -11 -26 -62 -45 -95 -33 -56 19 -61
108 -8 135 34 18 52 16 83 -8z m160 -50 c53 -42 24 -119 -46 -119 -33 0 -68
35 -68 67 0 29 42 73 68 73 11 0 31 -9 46 -21z m-356 -52 c2 -10 -3 -17 -12
-17 -18 0 -29 16 -21 31 9 14 29 6 33 -14z m482 -77 c26 -26 25 -51 -1 -84
-37 -47 -109 -23 -109 36 0 62 67 91 110 48z m-310 -113 l0 -113 -92 -53 c-86
-48 -93 -51 -105 -35 -7 10 -13 20 -13 23 0 3 36 26 80 51 l80 45 0 98 c0 97
0 97 25 97 l25 0 0 -113z m-284 82 c3 -6 0 -18 -9 -26 -18 -18 -37 -9 -37 18
0 21 34 27 46 8z m643 -151 c14 -25 14 -29 -5 -55 -12 -15 -31 -29 -43 -31
-50 -8 -82 66 -45 103 25 25 75 16 93 -17z m-683 -13 c7 -18 -13 -45 -33 -45
-17 0 -27 24 -19 45 7 20 45 19 52 0z m629 -145 c41 -46 -29 -116 -75 -75 -22
20 -27 64 -8 83 19 19 63 14 83 -8z m-580 -21 c5 -13 1 -27 -8 -36 -21 -21
-57 -8 -57 21 0 12 3 26 7 29 15 15 52 6 58 -14z m449 -95 c9 -8 16 -26 16
-38 0 -54 -77 -63 -95 -12 -8 24 -6 31 14 47 28 23 45 24 65 3z m-334 -8 c19
-23 8 -61 -18 -64 -44 -7 -67 32 -36 62 19 20 38 20 54 2z m168 -38 c28 -28 7
-78 -33 -78 -43 0 -58 39 -28 72 19 21 44 23 61 6z"/>
</g>
</svg>
